<?xml version="1.0" encoding="UTF-8" standalone="no"?>
<svg width="23px" height="20px" viewBox="0 0 23 20" version="1.1" xmlns="http://www.w3.org/2000/svg" xmlns:xlink="http://www.w3.org/1999/xlink">
    <!-- Generator: Sketch 39.1 (31720) - http://www.bohemiancoding.com/sketch -->
    <title>camera</title>
    <desc>Created with Sketch.</desc>
    <defs>
        <polygon id="path-1" points="19.2155254 0.762 0.00015 0.762 0.00015 20.00005 19.2155254 20.00005 19.2155254 0.762"></polygon>
    </defs>
    <g id="Webapp---concept" stroke="none" stroke-width="1" fill="none" fill-rule="evenodd">
        <g id="camera" transform="translate(0.000000, -1.000000)">
            <g id="slash" transform="translate(0.000000, 0.238400)">
                <mask id="mask-2" fill="white">
                    <use xlink:href="#path-1"></use>
                </mask>
                <g id="Clip-2"></g>
                <path d="M1.1879,19.9123 L0.0879,18.8143 C-0.0291,18.6973 -0.0291,18.5073 0.0879,18.3893 L17.6029,0.8493 C17.7199,0.7323 17.9099,0.7323 18.0279,0.8493 L19.1269,1.9473 C19.2449,2.0643 19.2449,2.2543 19.1279,2.3723 L1.6119,19.9123 C1.4949,20.0293 1.3049,20.0293 1.1879,19.9123" id="Fill-1" fill="#FFFFFF" mask="url(#mask-2)"></path>
            </g>
            <path d="M13.5179,2.1235 C13.2929,2.0805 13.0589,2.0585 12.8159,2.0585 L4.1729,2.0585 C3.1989,2.0585 2.3659,2.4045 1.6739,3.0965 C0.9829,3.7875 0.6369,4.6205 0.6369,5.5945 L0.6369,14.2375 C0.6369,14.4855 0.6609,14.7245 0.7049,14.9535 L13.5179,2.1235 Z" id="Fill-4" fill="#FFFFFF"></path>
            <g id="cam" transform="translate(1.000000, 2.238400)" fill="#FFFFFF">
                <path d="M21.1584,0.2745 C21.0524,0.2335 20.9494,0.2135 20.8504,0.2135 C20.6304,0.2135 20.4464,0.2915 20.2994,0.4465 L15.3504,5.3815 L15.3504,3.3565 C15.3504,2.4505 15.0384,1.6715 14.4394,1.0095 L0.8354,14.6325 C1.4954,15.2245 2.2704,15.5345 3.1734,15.5345 L11.8154,15.5345 C12.7894,15.5345 13.6224,15.1895 14.3134,14.4975 C15.0054,13.8065 15.3504,12.9735 15.3504,11.9995 L15.3504,9.9615 L20.2994,14.9085 C20.4464,15.0645 20.6304,15.1425 20.8504,15.1425 C20.9494,15.1425 21.0524,15.1215 21.1584,15.0805 C21.4774,14.9415 21.6374,14.6995 21.6374,14.3565 L21.6374,0.9995 C21.6374,0.6555 21.4774,0.4145 21.1584,0.2745" id="Fill-6"></path>
            </g>
        </g>
    </g>
</svg>