<?xml version="1.0" encoding="UTF-8"?>
<svg width="100px" height="100px" viewBox="0 0 100 100" version="1.1" xmlns="http://www.w3.org/2000/svg" xmlns:xlink="http://www.w3.org/1999/xlink">
    <!-- Generator: Sketch 41 (35326) - http://www.bohemiancoding.com/sketch -->
    <title>Artboard</title>
    <desc>Created with Sketch.</desc>
    <defs></defs>
    <g id="Page-1" stroke="none" stroke-width="1" fill="none" fill-rule="evenodd">
        <g id="Artboard" fill="#6C7A82">
            <path d="M86.8872768,57.6071429 C86.8872768,57.7745544 86.8705359,57.8917407 86.8370536,57.9587054 C84.6941857,66.9319645 80.2076234,74.2058873 73.3772321,79.780692 C66.5468408,85.3554966 58.5446887,88.1428571 49.3705357,88.1428571 C44.4821184,88.1428571 39.752813,87.2221074 35.1824777,85.3805804 C30.6121423,83.5390533 26.5357322,80.9107314 22.953125,77.4955357 L16.4743304,83.9743304 C15.8381665,84.6104943 15.0848258,84.9285714 14.2142857,84.9285714 C13.3437456,84.9285714 12.590405,84.6104943 11.9542411,83.9743304 C11.3180772,83.3381665 11,82.5848258 11,81.7142857 L11,59.2142857 C11,58.3437456 11.3180772,57.590405 11.9542411,56.9542411 C12.590405,56.3180772 13.3437456,56 14.2142857,56 L36.7142857,56 C37.5848258,56 38.3381665,56.3180772 38.9743304,56.9542411 C39.6104943,57.590405 39.9285714,58.3437456 39.9285714,59.2142857 C39.9285714,60.0848258 39.6104943,60.8381665 38.9743304,61.4743304 L32.09375,68.3549107 C34.470994,70.5647432 37.1662796,72.2723154 40.1796875,73.4776786 C43.1930954,74.6830417 46.3236445,75.2857143 49.5714286,75.2857143 C54.0580581,75.2857143 58.2432842,74.1975555 62.1272321,72.0212054 C66.0111801,69.8448552 69.1249883,66.8482334 71.46875,63.03125 C71.8370554,62.4620507 72.7243233,60.503365 74.1305804,57.1551339 C74.3984388,56.3850408 74.900666,56 75.6372768,56 L85.2801339,56 C85.715404,56 86.0920743,56.1590386 86.4101562,56.4771205 C86.7282382,56.7952025 86.8872768,57.1718728 86.8872768,57.6071429 Z M88.1428571,17.4285714 L88.1428571,39.9285714 C88.1428571,40.7991115 87.82478,41.5524522 87.1886161,42.1886161 C86.5524522,42.82478 85.7991115,43.1428571 84.9285714,43.1428571 L62.4285714,43.1428571 C61.5580314,43.1428571 60.8046907,42.82478 60.1685268,42.1886161 C59.5323629,41.5524522 59.2142857,40.7991115 59.2142857,39.9285714 C59.2142857,39.0580314 59.5323629,38.3046907 60.1685268,37.6685268 L67.0993304,30.7377232 C62.1439484,26.1506467 56.3013729,23.8571429 49.5714286,23.8571429 C45.084799,23.8571429 40.899573,24.9453016 37.015625,27.1216518 C33.131677,29.298002 30.0178689,32.2946238 27.6741071,36.1116071 C27.3058017,36.6808064 26.4185338,38.6394922 25.0122768,41.9877232 C24.7444183,42.7578164 24.2421912,43.1428571 23.5055804,43.1428571 L13.5111607,43.1428571 C13.0758907,43.1428571 12.6992203,42.9838186 12.3811384,42.6657366 C12.0630564,42.3476547 11.9040179,41.9709843 11.9040179,41.5357143 L11.9040179,41.1841518 C14.080368,32.2108926 18.6004121,24.9369698 25.4642857,19.3621652 C32.3281593,13.7873605 40.3637932,11 49.5714286,11 C54.4598459,11 59.2142626,11.9291202 63.8348214,13.7873884 C68.4553802,15.6456566 72.5569017,18.2656081 76.1395089,21.6473214 L82.6685268,15.1685268 C83.3046907,14.5323629 84.0580314,14.2142857 84.9285714,14.2142857 C85.7991115,14.2142857 86.5524522,14.5323629 87.1886161,15.1685268 C87.82478,15.8046907 88.1428571,16.5580314 88.1428571,17.4285714 Z" id=""></path>
        </g>
    </g>
</svg>