<?xml version="1.0" encoding="UTF-8" standalone="no"?>
<svg width="22px" height="16px" viewBox="0 0 22 16" version="1.1" xmlns="http://www.w3.org/2000/svg" xmlns:xlink="http://www.w3.org/1999/xlink">
    <!-- Generator: Sketch 39.1 (31720) - http://www.bohemiancoding.com/sketch -->
    <title>cam</title>
    <desc>Created with Sketch.</desc>
    <defs></defs>
    <g id="Webapp---concept" stroke="none" stroke-width="1" fill="none" fill-rule="evenodd">
        <path d="M22,1.46428571 L22,14.8214286 C22,15.1651803 21.8404034,15.4066213 21.5212054,15.5457589 C21.414806,15.5866818 21.3125005,15.6071429 21.2142857,15.6071429 C20.9933025,15.6071429 20.8091525,15.5293907 20.6618304,15.3738839 L15.7142857,10.4263393 L15.7142857,12.4642857 C15.7142857,13.4382489 15.368493,14.2710159 14.6768973,14.9626116 C13.9853016,15.6542073 13.1525346,16 12.1785714,16 L3.53571429,16 C2.56175108,16 1.72898411,15.6542073 1.03738839,14.9626116 C0.345792673,14.2710159 0,13.4382489 0,12.4642857 L0,3.82142857 C0,2.84746537 0.345792673,2.0146984 1.03738839,1.32310268 C1.72898411,0.631506959 2.56175108,0.285714286 3.53571429,0.285714286 L12.1785714,0.285714286 C13.1525346,0.285714286 13.9853016,0.631506959 14.6768973,1.32310268 C15.368493,2.0146984 15.7142857,2.84746537 15.7142857,3.82142857 L15.7142857,5.84709821 L20.6618304,0.911830357 C20.8091525,0.756323627 20.9933025,0.678571429 21.2142857,0.678571429 C21.3125005,0.678571429 21.414806,0.699032533 21.5212054,0.739955357 C21.8404034,0.879092958 22,1.120534 22,1.46428571 L22,1.46428571 Z" id="cam" fill="#FFFFFF"></path>
    </g>
</svg>