<?xml version="1.0" encoding="UTF-8" standalone="no"?>
<svg width="150px" height="34px" viewBox="0 0 150 34" version="1.1" xmlns="http://www.w3.org/2000/svg" xmlns:xlink="http://www.w3.org/1999/xlink">
    <!-- Generator: Sketch 3.8.3 (29802) - http://www.bohemiancoding.com/sketch -->
    <title>Logo</title>
    <desc>Created with Sketch.</desc>
    <defs></defs>
    <g id="Dashboard---concept" stroke="none" stroke-width="1" fill="none" fill-rule="evenodd">
        <g id="Dashboard-Home---colors-v2" transform="translate(-41.000000, -19.000000)">
            <g id="Logo" transform="translate(41.000000, 19.000000)">
                <path d="M9.57435572,23.7991266 C11.9771863,23.7991266 15.0084495,21.8340611 15.0084495,18.0858806 C15.0084495,14.7379913 12.3838192,12.3726346 9.64828897,12.3726346 C6.87579214,12.3726346 4.17722856,14.5560408 4.17722856,18.0858806 C4.17722856,22.125182 7.46725813,23.7991266 9.57435572,23.7991266 L9.57435572,23.7991266 Z M0,8.95196507 L4.06632869,8.95196507 L4.06632869,11.0989811 L4.14026193,11.0989811 C6.3582594,8.33333333 9.27862273,8.33333333 10.1658217,8.33333333 C16.2283481,8.33333333 19.4444444,13.5007278 19.4444444,18.0131004 C19.4444444,23.4352256 15.4150824,27.8384279 10.1658217,27.8384279 C6.98669202,27.8384279 5.58196029,26.5647744 4.43599493,25.5094614 L4.43599493,33.3333333 L0,33.3333333 L0,8.95196507 L0,8.95196507 Z" id="Fill-3" fill="#268CC6"></path>
                <polygon id="Fill-4" fill="#4DC5EA" points="59.2592593 18.9718076 59.2592593 27.7777778 54.6296296 27.7777778 54.6296296 2.77777778 59.2592593 2.77777778 59.2592593 17.8524046"></polygon>
                <polygon id="Fill-5" fill="#40B93C" points="87.4287749 13.0016584 83.3333333 13.0016584 83.3333333 9.00912106 87.4287749 9.00912106 87.4287749 2.77777778 91.7022792 2.77777778 91.7022792 9.00912106 96.2962963 9.00912106 96.2962963 13.0016584 91.7022792 13.0016584 91.7022792 27.7777778 87.4287749 27.7777778"></polygon>
                <path d="M96.2962963,9.00912106 L100.925926,9.00912106 L100.925926,27.7777778 L96.2962963,27.7777778 L96.2962963,9.00912106 L96.2962963,9.00912106 Z M96.2962963,2.77777778 L100.925926,2.77777778 L100.925926,6.88225539 L96.2962963,6.88225539 L96.2962963,2.77777778 L96.2962963,2.77777778 Z" id="Fill-6" fill="#40B93C"></path>
                <path d="M102.777778,9.00641026 L106.83562,9.00641026 L106.83562,10.5769231 L106.909399,10.5769231 C107.278294,9.97863248 108.532537,8.33333333 111.741921,8.33333333 C112.737937,8.33333333 115.35709,8.59508547 117.090896,11.2873932 C119.009149,8.48290598 121.77586,8.33333333 123.066991,8.33333333 C126.71905,8.33333333 128.489745,10.3151709 129.153755,11.25 C129.891545,12.2222222 130.555556,14.017094 130.555556,16.8215812 L130.555556,27.7777778 L126.128818,27.7777778 L126.128818,17.3450855 C126.128818,16.2606838 126.128818,12.4839744 122.624318,12.4839744 C121.406965,12.4839744 120.189612,13.1570513 119.562491,14.241453 C118.861591,15.3632479 118.89848,17.1955128 118.89848,18.392094 L118.89848,27.7777778 L114.434853,27.7777778 L114.434853,17.3450855 C114.434853,14.7649573 113.475727,12.4839744 110.745905,12.4839744 C107.204515,12.4839744 107.204515,16.4102564 107.204515,18.392094 L107.204515,27.7777778 L102.777778,27.7777778 L102.777778,9.00641026 L102.777778,9.00641026 Z" id="Fill-7" fill="#73C82C"></path>
                <path d="M49.5108452,15.8655462 C48.260955,12.2959765 42.8570179,10.3489384 39.2911546,14.4593521 C38.7029709,13.3055517 38.0780258,12.1878077 37.4530807,11.0340074 C39.6587693,8.36584409 44.5112843,7.5365501 48.0771476,9.23119434 C51.9371027,11.0340074 54.2530758,15.2165335 53.5913692,19.1466659 L38.3353562,19.1466659 C38.5191635,21.3460978 40.6145677,23.4373609 42.9305408,23.7618672 C45.0627065,24.0863736 46.8640189,23.5455297 48.4080009,21.9951105 C48.5550468,21.8148292 48.8123772,21.6345479 49.032946,21.6345479 C50.3195977,21.5984916 51.6062494,21.6345479 53.039947,21.6345479 C51.6062494,24.8796113 49.2535149,26.8987619 45.9449819,27.5838308 C39.6587693,28.8457999 34.1445478,23.7618672 34.4018781,17.776528 C34.4754011,16.4785027 34.3651166,15.2165335 33.5196027,14.1348457 C31.1668681,11.1782324 26.2408302,11.5748513 24.1086645,14.8559709 C23.9248571,15.144421 23.7778112,15.4689274 23.4837194,15.9376587 L28.4465188,15.9376587 L33.2990338,15.9376587 L33.2990338,19.1106097 L19.5502413,19.1106097 C19.2561495,17.2356841 19.5870028,15.4689274 20.3957553,13.7382269 C22.1603062,10.1686571 25.9467384,8.04133775 29.9537394,8.36584409 C33.8136945,8.65429417 36.9016586,11.2864012 38.0780258,15.2886461 C38.1883103,15.6852649 38.2985947,15.9376587 38.8132554,15.9376587 C42.3055957,15.9016025 45.797936,15.9376587 49.2902764,15.9376587 C49.3637993,15.9376587 49.4005608,15.9016025 49.5108452,15.8655462 L49.5108452,15.8655462 Z" id="Fill-33" fill="#2AABE8"></path>
                <path d="M36.1111111,24.9365379 C33.6666667,27.3521822 30.7037037,28.2957932 27.3333333,27.5031599 C24.0740741,26.7482711 21.7777778,24.6723269 20.3703704,21.3130716 C21.8148148,21.3130716 23.1111111,21.2753272 24.4074074,21.3130716 C24.5925926,21.3130716 24.8518519,21.5017938 25,21.6527716 C27.8888889,24.4458602 31.2222222,24.3326269 34.1111111,21.4263049 C34.7407407,22.5586382 35.4074074,23.7287158 36.1111111,24.9365379 L36.1111111,24.9365379 Z" id="Fill-34" fill="#2AABE8"></path>
                <path d="M145.586266,15.9238431 C142.069401,15.9238431 138.515517,15.8877622 134.998653,15.9238431 C134.924613,15.9238431 134.850574,15.9238431 134.776535,15.8877622 C135.405868,14.1198003 137.182811,12.6044045 139.144851,12.3157576 C141.291989,12.0271108 143.105951,12.5683236 144.660775,14.0837195 C144.734814,14.1558812 144.808854,14.2280429 144.882893,14.3002046 C145.290109,14.7692557 145.586266,15.2743877 145.771364,15.8516813 C145.697325,15.8877622 145.623285,15.9238431 145.586266,15.9238431 L145.586266,15.9238431 Z M147.363208,11.3776554 C147.289169,11.3415746 147.252149,11.2694129 147.17811,11.233332 C147.067051,11.0890086 146.918972,10.9446852 146.770894,10.8003617 C146.289639,10.3673915 145.771364,9.9705021 145.21607,9.64577441 C145.030971,9.5736127 144.882893,9.46537014 144.660775,9.35712757 C144.586736,9.32104672 144.549716,9.28496587 144.475677,9.24888501 C144.438657,9.24888501 144.364618,9.21280416 144.327599,9.21280416 C143.365088,8.74375305 142.291519,8.49118707 141.21795,8.38294451 C141.069871,8.34686365 140.921793,8.34686365 140.736695,8.34686365 L140.662656,8.34686365 C139.996302,8.3107828 139.292929,8.34686365 138.626576,8.45510622 C136.849634,8.7076722 135.183751,9.46537014 134.036142,10.5838766 C131.889004,12.3879193 130.519278,15.0939834 130.556297,18.0526135 C130.482258,23.9337927 135.961163,28.8407889 142.18046,27.577959 C145.549246,26.8924228 147.881483,24.8718949 149.362268,21.624618 C147.918502,21.624618 146.622815,21.5885372 145.290109,21.624618 C145.067991,21.624618 144.845873,21.8050223 144.660775,21.9854266 C143.105951,23.5369033 141.291989,24.0781161 139.144851,23.7533884 C136.812614,23.4286607 134.702496,21.3359712 134.517397,19.1350391 L149.880543,19.1350391 C150.361798,16.3928942 149.362268,13.470345 147.363208,11.3776554 L147.363208,11.3776554 Z" id="Fill-35" fill="#95D332"></path>
                <path d="M59.3415075,17.0587586 L65.2633843,8.33333333 L70.4080148,8.33333333 L63.7088917,17.3901038 L71.2962963,26.8518519 L65.6335016,26.8518519 L59.3415075,18.1632428 C59.1564489,17.6846329 59.3415075,17.0587586 59.3415075,17.0587586 L59.3415075,17.0587586 Z" id="Fill-36" fill="#59CAF5"></path>
                <path d="M80.4733073,9.81260145 L74.5144188,18.5185185 L69.4068,18.5185185 L76.1059231,9.44370665 L68.5185185,0 L74.1443015,0 L80.4733073,8.66902759 C80.6583659,9.1854803 80.4733073,9.81260145 80.4733073,9.81260145 L80.4733073,9.81260145 Z" id="Fill-37" fill="#4DC3BB"></path>
            </g>
        </g>
    </g>
</svg>